<?xml version="1.0" standalone="no"?>
<!DOCTYPE svg PUBLIC "-//W3C//DTD SVG 20010904//EN"
 "http://www.w3.org/TR/2001/REC-SVG-20010904/DTD/svg10.dtd">
<svg version="1.0" xmlns="http://www.w3.org/2000/svg"
 width="7730.000000pt" height="7730.000000pt" viewBox="0 0 7730.000000 7730.000000"
 preserveAspectRatio="xMidYMid meet">

<g transform="translate(0.000000,7730.000000) scale(0.100000,-0.100000)"
fill="#000000" stroke="none">
<path d="M30225 67754 c-464 -35 -918 -176 -1329 -413 -295 -170 -615 -409
-769 -574 -178 -191 -286 -344 -382 -542 -291 -597 -272 -1306 57 -2142 63
-161 230 -507 317 -657 28 -49 50 -90 48 -92 -1 -2 -763 -62 -1692 -133 -1079
-84 -1726 -137 -1790 -149 -279 -53 -514 -232 -645 -492 -85 -169 -97 -256
-105 -744 -3 -192 -6 -350 -8 -352 -1 -1 -596 -27 -1322 -58 -726 -31 -1381
-61 -1455 -66 -386 -28 -714 -191 -959 -475 l-70 -81 -638 -27 c-3143 -135
-3873 -168 -3973 -177 -765 -71 -1484 -432 -1998 -1003 -188 -210 -342 -435
-458 -667 -164 -332 -241 -571 -299 -940 -25 -157 -27 -193 -35 -705 -4 -297
-11 -943 -14 -1435 -11 -1608 -16 -2278 -21 -2695 -5 -379 -229 -29917 -274
-36135 -13 -1800 -17 -2779 -10 -2845 24 -257 114 -574 227 -800 363 -728
1103 -1212 1912 -1251 69 -4 514 3 990 15 476 12 1592 39 2480 61 888 22 1766
44 1950 50 363 11 1174 30 1176 27 1 -1 9 -54 19 -117 12 -85 22 -124 40 -150
29 -43 45 -92 90 -267 44 -171 71 -229 138 -301 30 -31 80 -96 111 -144 44
-69 68 -95 116 -128 34 -22 65 -40 69 -40 4 0 32 -22 62 -48 102 -90 138 -108
287 -140 71 -15 1296 -16 15836 -22 11898 -4 15754 -8 15735 -17 -13 -6 -136
-63 -274 -126 -891 -410 -1039 -479 -1079 -506 -44 -31 -103 -95 -125 -138 -6
-12 -11 -49 -11 -82 0 -51 6 -72 43 -142 68 -132 25 -122 529 -127 722 -8
2225 30 3888 98 523 21 570 28 693 92 93 48 215 174 260 268 70 144 80 241 52
500 -8 74 -15 145 -15 157 0 21 1 21 243 25 285 4 299 8 407 112 36 35 79 73
97 85 58 39 138 186 187 340 57 181 56 138 56 1993 l0 1704 119 484 c493 1998
901 3964 1220 5875 107 644 144 885 137 892 -3 4 -129 10 -278 14 l-273 9
-1120 -163 -1120 -163 -17 -314 c-96 -1760 -226 -3389 -384 -4800 -58 -519
-65 -570 -120 -780 -244 -936 -547 -1516 -917 -1761 -144 -95 -316 -141 -453
-119 -425 66 -697 643 -913 1935 -52 308 -92 594 -186 1305 -186 1418 -287
1987 -456 2575 -187 649 -460 1089 -774 1247 -143 73 -63 68 -1110 68 -894 0
-945 -1 -996 -19 -334 -115 -594 -450 -806 -1041 -116 -326 -238 -837 -332
-1395 -69 -413 -91 -565 -216 -1516 -110 -834 -160 -1168 -231 -1539 -165
-861 -371 -1353 -642 -1534 -100 -66 -177 -90 -292 -89 -179 1 -358 83 -519
237 -410 396 -715 1190 -960 2496 -214 1141 -369 2797 -421 4500 -13 434 -17
540 -22 546 -10 9 -788 -114 -1150 -182 l-136 -26 -6 -81 c-3 -45 -8 -199 -11
-342 -21 -973 -102 -2249 -201 -3160 -239 -2198 -637 -3570 -1186 -4091 -85
-81 -137 -118 -223 -162 -218 -109 -425 -102 -596 20 -302 217 -511 769 -688
1823 -53 317 -94 605 -191 1340 -130 991 -196 1419 -285 1859 -236 1169 -552
1788 -1012 1982 l-68 29 -954 3 c-1058 3 -980 7 -1121 -63 -453 -227 -764
-910 -999 -2200 -72 -395 -124 -753 -256 -1760 -108 -823 -171 -1228 -249
-1610 -195 -956 -443 -1414 -808 -1491 -147 -31 -336 16 -494 124 -280 190
-531 602 -739 1214 -426 1248 -687 3302 -776 6093 -6 187 -12 342 -15 344 -10
10 -500 -54 -1266 -166 l-36 -5 -6 -122 c-3 -66 -13 -281 -21 -476 -136 -3166
-560 -5396 -1185 -6239 -211 -284 -448 -433 -695 -435 -370 -2 -641 384 -839
1197 -112 459 -181 882 -336 2057 -135 1026 -197 1424 -292 1890 -172 844
-376 1373 -655 1695 -111 128 -226 212 -364 265 l-78 30 -946 0 c-931 0 -947
0 -1008 -21 -408 -136 -718 -642 -948 -1547 -130 -513 -225 -1083 -384 -2297
-190 -1450 -287 -1983 -452 -2469 -126 -373 -282 -618 -464 -728 -87 -53 -156
-72 -259 -71 -338 1 -642 262 -899 772 -528 1050 -860 3072 -991 6051 -5 124
-10 269 -10 322 0 56 -4 100 -10 103 -16 10 -140 -93 -256 -211 -449 -455
-743 -1205 -804 -2049 -6 -88 -10 -942 -10 -2307 l0 -2167 -112 -3 c-62 -2
-367 0 -678 3 -311 4 -866 9 -1235 13 -368 3 -812 8 -985 11 -314 5 -717 10
-1495 20 -501 7 -564 10 -682 40 -101 26 -252 93 -330 146 -77 54 -217 194
-274 276 -60 87 -119 216 -152 329 -22 78 -22 84 -20 714 1 571 13 2033 28
3310 3 261 10 939 15 1505 5 567 12 1264 15 1550 3 286 7 745 10 1020 5 526
11 1114 21 2010 3 297 75 7612 160 16255 127 12954 157 15727 168 15785 70
351 330 622 683 712 79 21 302 21 903 3 919 -28 3109 -23 4345 10 2729 74
5596 253 8630 540 412 39 507 44 5270 250 2668 115 4882 212 4921 215 270 22
510 186 629 430 64 131 79 197 80 350 l1 129 239 38 c1045 164 2247 365 3115
521 491 87 522 92 655 91 113 0 156 -4 225 -23 172 -46 304 -119 430 -238 163
-154 252 -314 294 -528 13 -63 91 -2082 371 -9581 195 -5225 355 -9524 355
-9552 l0 -52 153 0 c795 1 1616 170 2357 484 133 57 467 219 483 235 5 5 -1
220 -12 477 -12 258 -165 3797 -341 7864 -372 8565 -366 8444 -380 8575 -46
424 -164 827 -356 1206 -451 893 -1262 1550 -2229 1804 -121 32 -132 37 -160
72 -173 218 -411 355 -680 392 -128 17 -235 5 -760 -88 -1027 -182 -2194 -377
-2310 -386 -44 -3 -440 -21 -880 -40 -731 -32 -800 -33 -808 -19 -5 9 -37 51
-71 93 -144 179 -371 311 -606 352 -102 18 -204 14 -1934 -61 -896 -39 -1631
-68 -1634 -65 -3 3 -15 241 -28 530 -13 289 -28 551 -34 583 -38 194 -126 360
-264 498 -178 177 -412 274 -661 273 -55 0 -899 -62 -1875 -138 -976 -76
-1777 -137 -1780 -134 -2 2 26 642 62 1421 49 1043 65 1437 58 1494 -34 302
-154 558 -367 779 -227 235 -503 358 -928 414 -118 15 -422 27 -520 19z m121
-385 c149 -14 381 -62 489 -100 204 -72 355 -168 510 -323 180 -181 296 -390
356 -643 31 -129 37 -266 24 -535 -11 -223 -14 -248 -33 -281 -57 -91 -175
-108 -256 -37 -59 52 -61 65 -49 339 6 141 7 280 2 326 -22 210 -123 426 -273
583 -215 225 -501 327 -956 339 -216 6 -332 -3 -530 -43 -70 -14 -143 -24
-167 -21 -86 9 -149 89 -140 180 10 112 70 147 334 192 201 35 481 45 689 24z
m-170 -1119 c351 -90 608 -400 631 -762 24 -381 -210 -725 -577 -849 -82 -28
-112 -33 -225 -36 -146 -5 -227 7 -341 53 -214 86 -386 254 -470 462 -47 117
-59 180 -59 317 1 158 17 229 85 370 99 206 271 356 490 429 149 50 312 55
466 16z m1420 -999 c50 -23 84 -68 91 -122 3 -21 0 -155 -7 -297 -13 -286 -21
-320 -81 -363 -28 -20 -46 -24 -101 -24 -80 0 -112 19 -146 87 l-23 46 11 264
c7 145 16 279 21 299 12 50 45 88 93 110 52 23 90 23 142 0z m3782 -1731 c186
-45 337 -135 478 -283 54 -57 106 -124 133 -171 58 -103 108 -250 121 -361 14
-111 39 -697 31 -707 -3 -4 -79 -10 -168 -14 l-161 -7 -6 64 c-3 35 -11 190
-17 344 -12 299 -24 376 -72 472 -90 177 -253 301 -447 338 -82 16 -116 15
-905 -19 -451 -20 -861 -36 -911 -36 -85 0 -94 2 -131 29 -76 55 -92 151 -39
231 48 73 9 68 935 111 460 21 890 36 956 34 73 -3 153 -12 203 -25z m-2362
-174 c38 -32 39 -89 2 -121 -28 -24 -16 -23 -410 -41 l-136 -7 -26 26 c-35 35
-35 88 -1 122 20 21 34 25 87 26 35 1 124 5 198 8 253 14 256 14 286 -13z
m23489 -50682 c249 -85 569 -152 832 -176 79 -7 133 -16 133 -23 0 -43 -80
-639 -87 -646 -17 -17 -252 -88 -364 -111 -94 -19 -145 -22 -289 -22 -155 1
-186 4 -271 26 -108 29 -223 80 -285 126 l-41 30 106 426 c87 353 108 425 121
420 8 -3 74 -26 145 -50z"/>
<path d="M55510 56324 c-89 -16 -201 -83 -270 -161 -143 -160 -352 -578 -475
-948 -111 -334 -150 -575 -142 -885 7 -282 35 -411 137 -627 67 -141 137 -240
255 -358 210 -211 519 -374 884 -465 145 -36 250 -55 466 -85 94 -13 242 -40
330 -59 339 -75 540 -107 1465 -236 265 -37 409 -64 467 -90 97 -43 173 -150
210 -296 25 -97 24 -404 0 -564 -22 -142 -69 -353 -106 -482 -19 -63 -25 -98
-17 -98 6 0 47 5 92 11 l81 12 23 96 c82 344 225 601 381 685 109 60 261 42
381 -44 97 -69 147 -169 155 -310 16 -270 -164 -670 -425 -942 l-95 -99 15
-186 c14 -182 15 -187 42 -210 24 -20 37 -23 115 -23 249 0 555 111 860 310
354 232 501 395 501 554 0 105 -53 177 -182 249 -53 30 -78 59 -78 92 0 7 50
74 111 147 428 514 628 1067 540 1493 -45 218 -166 374 -356 461 -162 75 -288
71 -415 -11 -88 -56 -92 -53 -124 105 -46 227 -145 474 -271 674 -311 496
-817 820 -1466 941 -354 65 -806 72 -1258 18 -112 -13 -149 -14 -220 -4 -254
36 -429 159 -572 404 -301 512 -586 822 -834 907 -59 20 -160 32 -205 24z
m-16 -530 c24 -24 20 -36 -36 -105 -135 -168 -291 -451 -362 -655 -162 -473
-110 -907 157 -1303 92 -136 244 -300 380 -408 64 -52 75 -85 32 -105 -22 -10
-31 -6 -92 45 -341 283 -547 601 -628 967 -25 117 -31 362 -11 498 45 302 151
566 341 852 90 135 169 230 190 230 7 0 21 -7 29 -16z"/>
<path d="M57370 46930 c0 -4 69 -433 154 -951 85 -519 191 -1169 236 -1444 45
-275 122 -745 172 -1045 49 -300 92 -584 95 -633 3 -48 9 -89 13 -92 6 -4
1464 3545 1458 3550 -2 1 -37 -2 -78 -7 -41 -5 -165 -10 -275 -10 -338 -1
-605 45 -941 163 -306 107 -670 304 -783 423 -28 30 -51 51 -51 46z"/>
<path d="M52468 45274 c-29 -15 -58 -61 -58 -89 0 -9 30 -108 67 -219 l66
-202 211 -22 c116 -13 221 -22 234 -22 12 0 22 -4 22 -9 0 -11 -35 -21 -73
-21 -16 0 -26 -3 -24 -7 3 -5 -5 -9 -16 -10 -77 -6 -129 -12 -182 -23 -82 -16
-133 -22 -179 -22 -29 0 -35 -2 -25 -10 10 -7 6 -8 -15 -5 -16 3 -47 -1 -68
-9 -21 -7 -45 -11 -53 -8 -8 4 -23 3 -32 -1 -10 -4 -25 -9 -33 -11 -8 -1 -42
-7 -75 -14 -83 -16 -133 -22 -179 -22 -29 0 -35 -2 -25 -10 10 -7 6 -8 -15 -5
-16 3 -47 -1 -68 -9 -21 -7 -45 -11 -53 -8 -8 4 -23 3 -32 -1 -10 -5 -22 -9
-28 -10 -43 -6 -85 -19 -85 -26 0 -4 36 -157 79 -340 51 -214 86 -341 98 -358
33 -44 71 -58 168 -65 185 -13 2862 -146 2935 -146 94 0 132 20 162 86 l20 46
-71 365 c-75 389 -81 407 -143 436 -21 9 -161 28 -392 51 -198 19 -363 39
-367 43 -4 5 -26 89 -49 188 -47 198 -51 208 -83 229 -19 13 -1549 277 -1596
276 -9 -1 -28 -7 -43 -16z m584 -571 c-6 -3 -9 -10 -5 -16 4 -7 -1 -6 -10 2
-21 17 -21 17 6 18 12 0 16 -1 9 -4z m68 -9 c0 -2 -9 -4 -20 -4 -11 0 -20 4
-20 9 0 5 9 7 20 4 11 -3 20 -7 20 -9z m-96 -13 c4 -5 -4 -7 -16 -3 -13 3 -19
1 -15 -5 5 -7 -1 -9 -14 -6 -16 4 -17 8 -7 14 17 11 45 11 52 0z"/>
<path d="M63774 40925 c0 -71 1 -99 3 -62 2 37 2 96 0 130 -2 34 -3 4 -3 -68z"/>
<path d="M63784 40635 c0 -71 1 -99 3 -62 2 37 2 96 0 130 -2 34 -3 4 -3 -68z"/>
<path d="M63794 40315 c0 -60 1 -84 3 -52 2 32 2 81 0 110 -2 29 -3 3 -3 -58z"/>
<path d="M46800 39354 c0 -5 59 -1570 130 -3479 71 -1908 130 -3503 130 -3542
0 -43 4 -73 10 -73 6 0 34 13 63 29 165 93 526 226 732 271 477 102 918 66
1280 -104 50 -24 153 -80 230 -125 221 -130 733 -381 776 -381 7 0 9 37 5 113
-3 61 -8 168 -11 237 -3 69 -8 177 -10 240 -3 63 -7 160 -10 215 -3 55 -7 159
-10 230 -3 72 -7 177 -10 235 -3 58 -7 157 -10 220 -3 63 -12 273 -20 465 -8
193 -17 397 -20 455 -3 58 -19 422 -35 810 -16 388 -32 757 -35 820 -3 63 -7
165 -10 225 -3 61 -7 164 -10 230 -3 66 -7 170 -10 230 -3 61 -7 162 -10 225
-3 63 -7 174 -11 245 -3 72 -23 527 -44 1013 -21 486 -40 885 -42 887 -2 2
-76 -1 -163 -6 -221 -15 -931 -5 -1155 15 -227 21 -464 50 -670 82 -287 44
-790 151 -1037 220 -13 4 -23 2 -23 -2z"/>
<path d="M50743 28203 c15 -2 39 -2 55 0 15 2 2 4 -28 4 -30 0 -43 -2 -27 -4z"/>
<path d="M50323 28193 c26 -2 68 -2 95 0 26 2 4 3 -48 3 -52 0 -74 -1 -47 -3z"/>
<path d="M49968 28183 c29 -2 74 -2 100 0 26 2 2 3 -53 3 -55 0 -76 -1 -47 -3z"/>
<path d="M49502 28169 c-101 -12 -242 -61 -336 -117 -148 -88 -302 -265 -356
-410 -63 -167 -63 -167 -68 -676 l-4 -469 84 6 c46 4 109 7 140 7 l57 0 4 483
c4 542 2 527 82 694 76 157 206 295 358 381 69 40 213 90 290 101 57 8 52 9
-58 8 -66 0 -153 -3 -193 -8z"/>
<path d="M38205 27849 c-343 -50 -643 -304 -744 -634 -28 -89 -30 -123 -36
-657 l-5 -448 117 0 c65 0 128 3 140 6 l22 6 3 507 c4 493 4 508 27 581 49
163 160 329 293 440 90 74 264 163 373 189 l80 20 -105 -1 c-58 0 -132 -4
-165 -9z"/>
<path d="M25595 27499 c-413 -52 -764 -361 -840 -739 -10 -51 -14 -334 -17
-1305 -3 -1185 -2 -1243 16 -1315 55 -219 182 -400 368 -523 161 -106 399
-169 578 -151 l75 7 -55 12 c-299 63 -555 273 -654 536 -59 156 -57 110 -54
1479 l3 1255 29 85 c15 47 41 110 57 141 33 67 131 199 186 250 113 109 272
199 428 244 50 14 95 27 100 29 19 8 -150 4 -220 -5z"/>
<path d="M25838 27503 c7 -3 16 -2 19 1 4 3 -2 6 -13 5 -11 0 -14 -3 -6 -6z"/>
<path d="M26240 26473 c0 -8 12 -10 38 -6 50 8 50 10 3 15 -28 2 -41 0 -41 -9z"/>
<path d="M26375 26470 c-3 -5 1 -10 10 -10 9 0 14 -3 12 -7 -3 -5 16 -6 41 -3
l47 5 -42 3 c-24 2 -43 7 -43 13 0 12 -17 12 -25 -1z"/>
<path d="M26302 26453 c-45 -9 -16 -28 44 -29 40 -1 45 0 17 3 -44 4 -57 18
-25 26 22 6 -5 6 -36 0z"/>
<path d="M26578 26453 c12 -2 32 -2 45 0 12 2 2 4 -23 4 -25 0 -35 -2 -22 -4z"/>
<path d="M25810 26425 c-7 -14 -17 -25 -22 -25 -5 0 -4 10 3 21 8 15 8 19 0
15 -14 -9 -38 -56 -59 -115 -14 -40 -16 -137 -19 -814 -3 -503 0 -787 6 -825
34 -187 187 -337 383 -378 62 -13 131 -12 626 6 611 23 639 26 756 88 136 71
243 214 266 357 6 35 10 359 10 776 l0 716 -117 6 c-66 4 -119 11 -121 17 -2
6 -38 10 -83 10 -43 0 -79 4 -79 9 0 5 -72 12 -160 16 -88 4 -160 11 -160 16
0 5 -26 9 -59 9 -32 0 -86 3 -120 6 -50 6 -61 10 -61 25 0 15 -8 19 -40 19
-22 0 -40 -5 -40 -10 0 -15 -154 -5 -401 26 -108 13 -223 24 -257 24 -33 0
-62 4 -64 10 -1 5 -42 12 -89 15 -83 4 -86 4 -99 -20z m-33 -47 c-3 -8 -6 -5
-6 6 -1 11 2 17 5 13 3 -3 4 -12 1 -19z m33 -12 c0 -3 -4 -8 -10 -11 -5 -3
-10 -1 -10 4 0 6 5 11 10 11 6 0 10 -2 10 -4z"/>
<path d="M26988 26384 c17 -9 32 -20 32 -25 0 -4 -15 -10 -32 -12 -29 -3 -27
-4 10 -5 39 -2 42 0 42 24 l0 26 83 -7 c45 -4 79 -4 76 -1 -4 4 -60 9 -125 11
-115 5 -118 5 -86 -11z"/>
<path d="M27298 26373 c12 -2 32 -2 45 0 12 2 2 4 -23 4 -25 0 -35 -2 -22 -4z"/>
<path d="M27378 26353 c12 -2 32 -2 45 0 12 2 2 4 -23 4 -25 0 -35 -2 -22 -4z"/>
<path d="M27218 26343 c12 -2 32 -2 45 0 12 2 2 4 -23 4 -25 0 -35 -2 -22 -4z"/>
<path d="M27701 26294 c0 -11 3 -14 6 -6 3 7 2 16 -1 19 -3 4 -6 -2 -5 -13z"/>
<path d="M48870 25980 l-125 -5 1 -450 c0 -431 1 -453 22 -530 63 -229 212
-413 417 -514 130 -65 296 -97 434 -85 l73 7 -73 18 c-41 10 -117 40 -169 66
-80 40 -110 62 -190 143 -110 109 -156 183 -203 320 l-32 95 -3 473 c-2 357
-6 472 -15 470 -7 -1 -68 -5 -137 -8z"/>
<path d="M37482 25583 l-64 -4 4 -457 c4 -433 6 -461 26 -537 97 -350 379
-586 748 -624 57 -6 127 -6 164 -2 36 5 52 9 35 10 -55 2 -222 67 -300 115
-180 113 -305 276 -367 478 -21 70 -22 91 -26 551 l-3 477 -77 -2 c-42 -1
-105 -3 -140 -5z"/>
<path d="M38538 24983 c7 -3 16 -2 19 1 4 3 -2 6 -13 5 -11 0 -14 -3 -6 -6z"/>
<path d="M38436 24959 c4 -8 30 -6 38 2 3 3 -5 5 -19 5 -13 0 -22 -3 -19 -7z"/>
<path d="M38748 24944 c17 -9 32 -20 32 -25 0 -4 -15 -10 -32 -12 -29 -3 -27
-4 10 -5 38 -2 42 0 42 22 0 26 -17 36 -58 36 -27 0 -27 -1 6 -16z"/>
<path d="M38928 24933 c6 -2 18 -2 25 0 6 3 1 5 -13 5 -14 0 -19 -2 -12 -5z"/>
<path d="M38888 24923 c7 -3 16 -2 19 1 4 3 -2 6 -13 5 -11 0 -14 -3 -6 -6z"/>
<path d="M38985 24920 c-27 -7 -28 -8 -5 -8 14 0 34 3 45 8 25 11 2 11 -40 0z"/>
<path d="M39058 24903 c12 -2 32 -2 45 0 12 2 2 4 -23 4 -25 0 -35 -2 -22 -4z"/>
<path d="M38531 24886 c-9 -11 -9 -16 1 -22 7 -4 10 -4 6 1 -4 4 -3 14 3 22 6
7 9 13 6 13 -2 0 -10 -6 -16 -14z"/>
<path d="M38556 24882 c-3 -5 1 -9 9 -9 8 0 12 4 9 9 -3 4 -7 8 -9 8 -2 0 -6
-4 -9 -8z"/>
<path d="M39200 24873 c0 -8 12 -10 38 -6 50 8 50 10 3 15 -28 2 -41 0 -41 -9z"/>
<path d="M38590 24870 c0 -5 5 -10 11 -10 5 0 7 5 4 10 -3 6 -8 10 -11 10 -2
0 -4 -4 -4 -10z"/>
<path d="M39408 24853 c6 -2 18 -2 25 0 6 3 1 5 -13 5 -14 0 -19 -2 -12 -5z"/>
<path d="M38583 24835 c0 -8 4 -12 9 -9 4 3 8 1 8 -4 0 -14 48 -32 67 -25 11
4 14 3 9 -5 -10 -17 9 -15 23 2 9 11 6 15 -19 18 -16 2 -32 0 -34 -6 -2 -6 -5
-3 -5 7 -1 10 -6 15 -12 12 -5 -4 -18 0 -28 9 -15 14 -18 14 -18 1z"/>
<path d="M39240 24839 c0 -6 9 -13 20 -16 11 -3 17 -10 13 -16 -3 -5 -1 -7 5
-4 16 11 2 47 -19 47 -11 0 -19 -5 -19 -11z"/>
<path d="M39368 24843 c7 -3 16 -2 19 1 4 3 -2 6 -13 5 -11 0 -14 -3 -6 -6z"/>
<path d="M39465 24840 c-27 -7 -28 -8 -5 -8 14 0 34 3 45 8 25 11 2 11 -40 0z"/>
<path d="M39528 24822 c12 -8 72 -4 72 4 0 2 -19 4 -42 4 -26 0 -38 -4 -30 -8z"/>
<path d="M39158 24809 c31 -6 50 -15 46 -21 -4 -6 2 -5 15 1 26 14 27 20 4 19
-10 0 -40 2 -68 6 l-50 5 53 -10z"/>
<path d="M38715 24786 l-20 -15 20 -1 c11 0 52 -3 91 -6 40 -3 74 -2 77 3 3 5
-13 7 -35 5 -23 -3 -43 0 -47 7 -12 19 -64 23 -86 7z"/>
<path d="M39120 24789 c0 -6 -8 -8 -19 -4 -11 3 -22 1 -25 -4 -4 -6 5 -8 21
-7 16 2 37 4 48 5 17 1 18 3 5 11 -20 13 -30 12 -30 -1z"/>
<path d="M38900 24770 c0 -5 4 -10 9 -10 6 0 13 5 16 10 3 6 -1 10 -9 10 -9 0
-16 -4 -16 -10z"/>
<path d="M60900 22332 c0 -22 4 -118 10 -213 5 -96 11 -223 14 -284 3 -60 10
-202 16 -315 5 -113 12 -261 15 -330 3 -69 7 -168 10 -220 3 -52 7 -167 10
-255 3 -88 7 -207 10 -265 3 -58 7 -177 10 -265 9 -283 15 -446 20 -605 2 -85
7 -229 10 -320 3 -91 10 -340 15 -555 5 -214 12 -462 15 -550 16 -502 40
-1973 55 -3390 16 -1497 27 -2000 44 -2059 33 -108 100 -171 226 -211 135 -42
243 -57 460 -62 266 -7 464 13 557 56 73 34 131 89 161 154 33 69 106 406 186
857 362 2024 713 5062 896 7745 26 394 30 439 35 510 2 33 7 107 10 165 4 58
10 161 14 230 4 69 4 127 0 130 -4 3 -592 22 -1306 43 -714 21 -1342 40 -1395
44 l-98 6 0 -41z"/>
<path d="M62251 11775 l-23 -126 -48 -24 c-76 -39 -211 -74 -329 -85 -123 -13
-255 -3 -416 31 l-100 21 7 76 c3 42 7 101 7 131 l1 54 -21 -19 c-12 -10 -52
-58 -90 -106 -325 -407 -558 -983 -634 -1566 -13 -97 -14 -134 -5 -184 22
-121 96 -220 205 -273 76 -38 200 -46 520 -34 424 15 1118 67 1210 91 106 27
205 111 251 212 39 85 41 159 10 316 -116 581 -296 1188 -460 1553 -18 39 -31
57 -44 57 -16 0 -22 -19 -41 -125z"/>
</g>
</svg>
